<svg xmlns="http://www.w3.org/2000/svg" xmlns:xlink="http://www.w3.org/1999/xlink" width="494" height="485" viewBox="0 0 494 485">
  <defs>
    <clipPath id="clip-Web_1920_1">
      <rect width="494" height="485"/>
    </clipPath>
  </defs>
  <g id="Web_1920_1" data-name="Web 1920 – 1" clip-path="url(#clip-Web_1920_1)">
    <g id="comp_x5F_129-fiverr" transform="translate(-18.962 -13.5)">
      <g id="Group_2" data-name="Group 2">
        <g id="Group_1" data-name="Group 1">
          <path id="Path_1" data-name="Path 1" d="M413.7,399.752v-230H184.32V155.375a43.115,43.115,0,0,1,43-43.124h43.008V26H227.324C156.191,26,98.306,84.044,98.306,155.375V169.75H40.962V256H98.3V399.752H40.962V486H241.667V399.752H184.32V256H328.477V399.752H270.332V486h200.7V399.752Z" fill="#fff"/>
          <path id="Path_2" data-name="Path 2" d="M370.685,112.25A43.125,43.125,0,1,0,327.68,69.125,43.069,43.069,0,0,0,370.685,112.25Z" fill="#fff"/>
        </g>
      </g>
    </g>
  </g>
</svg>
