<svg xmlns="http://www.w3.org/2000/svg" xmlns:xlink="http://www.w3.org/1999/xlink" width="262" height="287" viewBox="0 0 262 287">
  <defs>
    <clipPath id="clip-Icon-sever">
      <rect width="262" height="287"/>
    </clipPath>
  </defs>
  <g id="Icon-sever" clip-path="url(#clip-Icon-sever)">
    <g id="Path_1" data-name="Path 1" transform="translate(107.676 198.89)">
      <path d="M 63.84067535400391 71.40966033935547 L 46.74396133422852 71.40966033935547 L 0.5163169503211975 71.40966033935547 L -18.27273750305176 71.40966033935547 L 0.8990820646286011 0.4999968409538269 L 46.352294921875 0.4999968409538269 L 63.84067535400391 71.40966033935547 Z" stroke="none"/>
      <path d="M 1.281856536865234 1 L -17.61959075927734 70.90966033935547 L 0.5163154602050781 70.90966033935547 L 46.74396133422852 70.90966033935547 L 63.20237731933594 70.90966033935547 L 45.96062088012695 1 L 1.281856536865234 1 M 0.5163154602050781 0 L 46.74396133422852 0 L 64.47897338867188 71.90966033935547 L 46.74396133422852 71.90966033935547 L 0.5163154602050781 71.90966033935547 L -18.92587280273438 71.90966033935547 L 0.5163154602050781 0 Z" stroke="none" fill="#707070"/>
    </g>
    <g id="Rectangle_1" data-name="Rectangle 1" transform="translate(33 271)" stroke="#707070" stroke-width="1">
      <rect width="195" height="16" stroke="none"/>
      <rect x="0.5" y="0.5" width="194" height="15" fill="none"/>
    </g>
    <g id="Rectangle_2" data-name="Rectangle 2" transform="translate(0 47)" stroke="#707070" stroke-width="1">
      <rect width="256" height="157" stroke="none"/>
      <rect x="0.5" y="0.5" width="255" height="156" fill="none"/>
    </g>
    <g id="Rectangle_3" data-name="Rectangle 3" transform="translate(22 69)" fill="#b7b7b7" stroke="#b4a3a3" stroke-width="1">
      <rect width="210" height="114" stroke="none"/>
      <rect x="0.5" y="0.5" width="209" height="113" fill="none"/>
    </g>
    <g id="Rectangle_4" data-name="Rectangle 4" transform="translate(40)" fill="#eaeaea" stroke="#707070" stroke-width="1">
      <rect width="176" height="183" stroke="none"/>
      <rect x="0.5" y="0.5" width="175" height="182" fill="none"/>
    </g>
    <g id="Rectangle_5" data-name="Rectangle 5" transform="translate(51 14)" fill="#fff" stroke="#707070" stroke-width="1">
      <rect width="154" height="169" stroke="none"/>
      <rect x="0.5" y="0.5" width="153" height="168" fill="none"/>
    </g>
    <g id="Path_2" data-name="Path 2" transform="translate(51 3.706)" fill="#f50303">
      <path d="M 3.723374366760254 5.663682460784912 C 1.946004390716553 5.663682460784912 0.5000043511390686 4.505472660064697 0.5000043511390686 3.081842422485352 C 0.5000043511390686 1.658212423324585 1.946004390716553 0.5000024437904358 3.723374366760254 0.5000024437904358 C 5.500744342803955 0.5000024437904358 6.946744441986084 1.658212423324585 6.946744441986084 3.081842422485352 C 6.946744441986084 4.505472660064697 5.500744342803955 5.663682460784912 3.723374366760254 5.663682460784912 Z" stroke="none"/>
      <path d="M 3.723374366760254 1.000002384185791 C 2.961084365844727 1.000002384185791 2.252504348754883 1.239012241363525 1.728174209594727 1.673002243041992 C 1.258604526519775 2.061662197113037 1.000004291534424 2.562002420425415 1.000004291534424 3.081842422485352 C 1.000004291534424 3.601682424545288 1.258604526519775 4.102022171020508 1.728174209594727 4.490682601928711 C 2.252504348754883 4.92467212677002 2.961084365844727 5.163682460784912 3.723374366760254 5.163682460784912 C 4.485664367675781 5.163682460784912 5.194244384765625 4.92467212677002 5.718574523925781 4.490682601928711 C 6.188144207000732 4.102022171020508 6.446744441986084 3.601682424545288 6.446744441986084 3.081842422485352 C 6.446744441986084 2.562002420425415 6.188144207000732 2.061662197113037 5.718574523925781 1.673002243041992 C 5.194244384765625 1.239012241363525 4.485664367675781 1.000002384185791 3.723374366760254 1.000002384185791 M 3.723374366760254 2.384185791015625e-06 C 5.77973461151123 2.384185791015625e-06 7.446744441986084 1.379792213439941 7.446744441986084 3.081842422485352 C 7.446744441986084 4.783892631530762 5.77973461151123 6.163682460784912 3.723374366760254 6.163682460784912 C 1.667014598846436 6.163682460784912 4.291534423828125e-06 4.783892631530762 4.291534423828125e-06 3.081842422485352 C 4.291534423828125e-06 1.379792213439941 1.667014598846436 2.384185791015625e-06 3.723374366760254 2.384185791015625e-06 Z" stroke="none" fill="#707070"/>
    </g>
    <g id="Path_3" data-name="Path 3" transform="translate(58.447 3.706)" fill="#fff612">
      <path d="M 3.723374366760254 5.663682460784912 C 1.946004390716553 5.663682460784912 0.5000043511390686 4.505472660064697 0.5000043511390686 3.081842422485352 C 0.5000043511390686 1.658212423324585 1.946004390716553 0.5000024437904358 3.723374366760254 0.5000024437904358 C 5.500744342803955 0.5000024437904358 6.946744441986084 1.658212423324585 6.946744441986084 3.081842422485352 C 6.946744441986084 4.505472660064697 5.500744342803955 5.663682460784912 3.723374366760254 5.663682460784912 Z" stroke="none"/>
      <path d="M 3.723374366760254 1.000002384185791 C 2.961084365844727 1.000002384185791 2.252504348754883 1.239012241363525 1.728174209594727 1.673002243041992 C 1.258604526519775 2.061662197113037 1.000004291534424 2.562002420425415 1.000004291534424 3.081842422485352 C 1.000004291534424 3.601682424545288 1.258604526519775 4.102022171020508 1.728174209594727 4.490682601928711 C 2.252504348754883 4.92467212677002 2.961084365844727 5.163682460784912 3.723374366760254 5.163682460784912 C 4.485664367675781 5.163682460784912 5.194244384765625 4.92467212677002 5.718574523925781 4.490682601928711 C 6.188144207000732 4.102022171020508 6.446744441986084 3.601682424545288 6.446744441986084 3.081842422485352 C 6.446744441986084 2.562002420425415 6.188144207000732 2.061662197113037 5.718574523925781 1.673002243041992 C 5.194244384765625 1.239012241363525 4.485664367675781 1.000002384185791 3.723374366760254 1.000002384185791 M 3.723374366760254 2.384185791015625e-06 C 5.77973461151123 2.384185791015625e-06 7.446744441986084 1.379792213439941 7.446744441986084 3.081842422485352 C 7.446744441986084 4.783892631530762 5.77973461151123 6.163682460784912 3.723374366760254 6.163682460784912 C 1.667014598846436 6.163682460784912 4.291534423828125e-06 4.783892631530762 4.291534423828125e-06 3.081842422485352 C 4.291534423828125e-06 1.379792213439941 1.667014598846436 2.384185791015625e-06 3.723374366760254 2.384185791015625e-06 Z" stroke="none" fill="#707070"/>
    </g>
    <g id="Ellipse_1" data-name="Ellipse 1" transform="translate(65.652 3.706)" fill="#03ff20" stroke="#707070" stroke-width="1">
      <ellipse cx="3.595" cy="3.082" rx="3.595" ry="3.082" stroke="none"/>
      <ellipse cx="3.595" cy="3.082" rx="3.095" ry="2.582" fill="none"/>
    </g>
    <g id="Rectangle_8" data-name="Rectangle 8" transform="translate(72.5 98)" stroke="#707070" stroke-width="1">
      <rect width="83" height="39" stroke="none"/>
      <rect x="0.5" y="0.5" width="82" height="38" fill="none"/>
    </g>
    <g id="Rectangle_6" data-name="Rectangle 6" transform="translate(61.5 69)" fill="#363636" stroke="#707070" stroke-width="1">
      <rect width="106" height="49" rx="7" stroke="none"/>
      <rect x="0.5" y="0.5" width="105" height="48" rx="6.5" fill="none"/>
    </g>
    <g id="Rectangle_7" data-name="Rectangle 7" transform="translate(61.5 124)" fill="#363636" stroke="#707070" stroke-width="1">
      <rect width="106" height="50" rx="7" stroke="none"/>
      <rect x="0.5" y="0.5" width="105" height="49" rx="6.5" fill="none"/>
    </g>
    <path id="Rectangle_9" data-name="Rectangle 9" d="M0,0H17a0,0,0,0,1,0,0V1a4,4,0,0,1-4,4H4A4,4,0,0,1,0,1V0A0,0,0,0,1,0,0Z" transform="translate(72.5 174)" fill="#363636"/>
    <path id="Rectangle_10" data-name="Rectangle 10" d="M0,0H17a0,0,0,0,1,0,0V1a4,4,0,0,1-4,4H4A4,4,0,0,1,0,1V0A0,0,0,0,1,0,0Z" transform="translate(138.5 174)" fill="#363636"/>
    <g id="Path_4" data-name="Path 4" transform="translate(148.568 88.073)" fill="#f50303">
      <path d="M 6.265106678009033 9.871262550354004 C 3.086216688156128 9.871262550354004 0.499996691942215 7.769302368164062 0.499996691942215 5.185632228851318 C 0.499996691942215 2.601962327957153 3.086216688156128 0.5000022053718567 6.265106678009033 0.5000022053718567 C 9.443996429443359 0.5000022053718567 12.03021621704102 2.601962327957153 12.03021621704102 5.185632228851318 C 12.03021621704102 7.769302368164062 9.443996429443359 9.871262550354004 6.265106678009033 9.871262550354004 Z" stroke="none"/>
      <path d="M 6.265106678009033 1.000001907348633 C 3.361916542053223 1.000001907348633 0.9999971389770508 2.87767219543457 0.9999971389770508 5.185632228851318 C 0.9999971389770508 7.493592262268066 3.361916542053223 9.371262550354004 6.265106678009033 9.371262550354004 C 9.168296813964844 9.371262550354004 11.53021621704102 7.493592262268066 11.53021621704102 5.185632228851318 C 11.53021621704102 2.87767219543457 9.168296813964844 1.000001907348633 6.265106678009033 1.000001907348633 M 6.265106678009033 1.9073486328125e-06 C 9.725226402282715 1.9073486328125e-06 12.53021621704102 2.321681976318359 12.53021621704102 5.185632228851318 C 12.53021621704102 8.049582481384277 9.725226402282715 10.371262550354 6.265106678009033 10.371262550354 C 2.804986953735352 10.371262550354 -2.86102294921875e-06 8.049582481384277 -2.86102294921875e-06 5.185632228851318 C -2.86102294921875e-06 2.321681976318359 2.804986953735352 1.9073486328125e-06 6.265106678009033 1.9073486328125e-06 Z" stroke="none" fill="#707070"/>
    </g>
    <g id="Path_7" data-name="Path 7" transform="translate(148.568 143.921)" fill="#f50303">
      <path d="M 6.265106678009033 9.871262550354004 C 3.086216688156128 9.871262550354004 0.499996691942215 7.769302368164062 0.499996691942215 5.185632228851318 C 0.499996691942215 2.601962327957153 3.086216688156128 0.5000022053718567 6.265106678009033 0.5000022053718567 C 9.443996429443359 0.5000022053718567 12.03021621704102 2.601962327957153 12.03021621704102 5.185632228851318 C 12.03021621704102 7.769302368164062 9.443996429443359 9.871262550354004 6.265106678009033 9.871262550354004 Z" stroke="none"/>
      <path d="M 6.265106678009033 1.000001907348633 C 3.361916542053223 1.000001907348633 0.9999971389770508 2.87767219543457 0.9999971389770508 5.185632228851318 C 0.9999971389770508 7.493592262268066 3.361916542053223 9.371262550354004 6.265106678009033 9.371262550354004 C 9.168296813964844 9.371262550354004 11.53021621704102 7.493592262268066 11.53021621704102 5.185632228851318 C 11.53021621704102 2.87767219543457 9.168296813964844 1.000001907348633 6.265106678009033 1.000001907348633 M 6.265106678009033 1.9073486328125e-06 C 9.725226402282715 1.9073486328125e-06 12.53021621704102 2.321681976318359 12.53021621704102 5.185632228851318 C 12.53021621704102 8.049582481384277 9.725226402282715 10.371262550354 6.265106678009033 10.371262550354 C 2.804986953735352 10.371262550354 -2.86102294921875e-06 8.049582481384277 -2.86102294921875e-06 5.185632228851318 C -2.86102294921875e-06 2.321681976318359 2.804986953735352 1.9073486328125e-06 6.265106678009033 1.9073486328125e-06 Z" stroke="none" fill="#707070"/>
    </g>
    <g id="Path_5" data-name="Path 5" transform="translate(136.038 88.073)" fill="#fff612">
      <path d="M 6.265106678009033 9.871262550354004 C 3.086216688156128 9.871262550354004 0.499996691942215 7.769302368164062 0.499996691942215 5.185632228851318 C 0.499996691942215 2.601962327957153 3.086216688156128 0.5000022053718567 6.265106678009033 0.5000022053718567 C 9.443996429443359 0.5000022053718567 12.03021621704102 2.601962327957153 12.03021621704102 5.185632228851318 C 12.03021621704102 7.769302368164062 9.443996429443359 9.871262550354004 6.265106678009033 9.871262550354004 Z" stroke="none"/>
      <path d="M 6.265106678009033 1.000001907348633 C 3.361916542053223 1.000001907348633 0.9999971389770508 2.87767219543457 0.9999971389770508 5.185632228851318 C 0.9999971389770508 7.493592262268066 3.361916542053223 9.371262550354004 6.265106678009033 9.371262550354004 C 9.168296813964844 9.371262550354004 11.53021621704102 7.493592262268066 11.53021621704102 5.185632228851318 C 11.53021621704102 2.87767219543457 9.168296813964844 1.000001907348633 6.265106678009033 1.000001907348633 M 6.265106678009033 1.9073486328125e-06 C 9.725226402282715 1.9073486328125e-06 12.53021621704102 2.321681976318359 12.53021621704102 5.185632228851318 C 12.53021621704102 8.049582481384277 9.725226402282715 10.371262550354 6.265106678009033 10.371262550354 C 2.804986953735352 10.371262550354 -2.86102294921875e-06 8.049582481384277 -2.86102294921875e-06 5.185632228851318 C -2.86102294921875e-06 2.321681976318359 2.804986953735352 1.9073486328125e-06 6.265106678009033 1.9073486328125e-06 Z" stroke="none" fill="#707070"/>
    </g>
    <g id="Path_6" data-name="Path 6" transform="translate(136.038 143.921)" fill="#fff612">
      <path d="M 6.265106678009033 9.871262550354004 C 3.086216688156128 9.871262550354004 0.499996691942215 7.769302368164062 0.499996691942215 5.185632228851318 C 0.499996691942215 2.601962327957153 3.086216688156128 0.5000022053718567 6.265106678009033 0.5000022053718567 C 9.443996429443359 0.5000022053718567 12.03021621704102 2.601962327957153 12.03021621704102 5.185632228851318 C 12.03021621704102 7.769302368164062 9.443996429443359 9.871262550354004 6.265106678009033 9.871262550354004 Z" stroke="none"/>
      <path d="M 6.265106678009033 1.000001907348633 C 3.361916542053223 1.000001907348633 0.9999971389770508 2.87767219543457 0.9999971389770508 5.185632228851318 C 0.9999971389770508 7.493592262268066 3.361916542053223 9.371262550354004 6.265106678009033 9.371262550354004 C 9.168296813964844 9.371262550354004 11.53021621704102 7.493592262268066 11.53021621704102 5.185632228851318 C 11.53021621704102 2.87767219543457 9.168296813964844 1.000001907348633 6.265106678009033 1.000001907348633 M 6.265106678009033 1.9073486328125e-06 C 9.725226402282715 1.9073486328125e-06 12.53021621704102 2.321681976318359 12.53021621704102 5.185632228851318 C 12.53021621704102 8.049582481384277 9.725226402282715 10.371262550354 6.265106678009033 10.371262550354 C 2.804986953735352 10.371262550354 -2.86102294921875e-06 8.049582481384277 -2.86102294921875e-06 5.185632228851318 C -2.86102294921875e-06 2.321681976318359 2.804986953735352 1.9073486328125e-06 6.265106678009033 1.9073486328125e-06 Z" stroke="none" fill="#707070"/>
    </g>
    <g id="Ellipse_2" data-name="Ellipse 2" transform="translate(124.345 88.073)" fill="#03ff20" stroke="#707070" stroke-width="1">
      <ellipse cx="6.05" cy="5.186" rx="6.05" ry="5.186" stroke="none"/>
      <ellipse cx="6.05" cy="5.186" rx="5.55" ry="4.686" fill="none"/>
    </g>
    <g id="Ellipse_3" data-name="Ellipse 3" transform="translate(124.345 143.921)" fill="#03ff20" stroke="#707070" stroke-width="1">
      <ellipse cx="6.05" cy="5.186" rx="6.05" ry="5.186" stroke="none"/>
      <ellipse cx="6.05" cy="5.186" rx="5.55" ry="4.686" fill="none"/>
    </g>
    <g id="settings_black_24dp" transform="translate(146.779 44.948)">
      <path id="Path_8" data-name="Path 8" d="M0,0H63.155V63.155H0Z" transform="translate(-6.202 -29.526)" fill="none"/>
      <path id="Path_9" data-name="Path 9" d="M47.424,30.893a20.507,20.507,0,0,0,.184-2.579,20.508,20.508,0,0,0-.184-2.579l5.552-4.342a1.328,1.328,0,0,0,.316-1.684L48.03,10.6a1.314,1.314,0,0,0-1.158-.658,1.229,1.229,0,0,0-.447.079l-6.552,2.631a19.226,19.226,0,0,0-4.447-2.579l-1-6.973A1.283,1.283,0,0,0,33.136,2H22.61a1.283,1.283,0,0,0-1.289,1.105l-1,6.973a20.217,20.217,0,0,0-4.447,2.579L9.321,10.026a1.49,1.49,0,0,0-.474-.079,1.3,1.3,0,0,0-1.132.658l-5.263,9.1a1.3,1.3,0,0,0,.316,1.684l5.552,4.342a20.869,20.869,0,0,0-.184,2.579,20.869,20.869,0,0,0,.184,2.579L2.769,35.235a1.328,1.328,0,0,0-.316,1.684l5.263,9.1a1.314,1.314,0,0,0,1.158.658,1.229,1.229,0,0,0,.447-.079l6.552-2.631a19.226,19.226,0,0,0,4.447,2.579l1,6.973a1.283,1.283,0,0,0,1.289,1.105H33.136a1.283,1.283,0,0,0,1.289-1.105l1-6.973a20.217,20.217,0,0,0,4.447-2.579L46.424,46.6a1.49,1.49,0,0,0,.474.079,1.3,1.3,0,0,0,1.132-.658l5.263-9.1a1.328,1.328,0,0,0-.316-1.684Zm-5.21-4.5a14.059,14.059,0,0,1,.132,1.921c0,.553-.053,1.132-.132,1.921l-.368,2.974,2.342,1.842,2.842,2.21-1.842,3.184L41.846,39.1,39.109,38l-2.368,1.789a15.411,15.411,0,0,1-3.289,1.921L30.662,42.84l-.421,2.974-.526,3.552H26.031l-.5-3.552L25.11,42.84,22.32,41.708a14.931,14.931,0,0,1-3.237-1.868L16.689,38,13.9,39.13l-3.342,1.342L8.716,37.288l2.842-2.21L13.9,33.235l-.368-2.974c-.079-.816-.132-1.421-.132-1.947s.053-1.132.132-1.921L13.9,23.42l-2.342-1.842-2.842-2.21,1.842-3.184L13.9,17.525l2.737,1.105L19,16.841a15.411,15.411,0,0,1,3.289-1.921l2.789-1.132.421-2.974.526-3.552h3.658l.5,3.552.421,2.974L33.4,14.92a14.93,14.93,0,0,1,3.237,1.868l2.395,1.842L41.819,17.5l3.342-1.342L47,19.341l-2.816,2.237L41.846,23.42l.368,2.974Zm-14.341-8.6A10.526,10.526,0,1,0,38.4,28.314,10.523,10.523,0,0,0,27.873,17.789Zm0,15.789a5.263,5.263,0,1,1,5.263-5.263A5.278,5.278,0,0,1,27.873,33.577Z" transform="translate(-2.492 -26.263)"/>
    </g>
  </g>
</svg>
