<svg xmlns="http://www.w3.org/2000/svg" xmlns:xlink="http://www.w3.org/1999/xlink" width="263" height="292" viewBox="0 0 263 292">
  <defs>
    <clipPath id="clip-Icon-webBuild">
      <rect width="263" height="292"/>
    </clipPath>
  </defs>
  <g id="Icon-webBuild" clip-path="url(#clip-Icon-webBuild)">
    <g id="Path_1" data-name="Path 1" transform="translate(113 206)">
      <path d="M 61.62574005126953 69.5 L 45.00000381469727 69.5 L 4.863823960477021e-06 69.5 L -18.27273750305176 69.5 L 0.3827699422836304 0.5 L 44.60833740234375 0.5 L 61.62574005126953 69.5 Z" stroke="none"/>
      <path d="M 0.765533447265625 1 L -17.61959075927734 69 L -7.62939453125e-06 69 L 44.99999237060547 69 L 60.98744201660156 69 L 44.21665573120117 1 L 0.765533447265625 1 M -7.62939453125e-06 0 L 44.99999237060547 0 L 62.2640380859375 70 L 44.99999237060547 70 L -7.62939453125e-06 70 L -18.92587280273438 70 L -7.62939453125e-06 0 Z" stroke="none" fill="#707070"/>
    </g>
    <g id="Rectangle_3" data-name="Rectangle 3" transform="translate(40 276)" stroke="#707070" stroke-width="1">
      <rect width="190" height="16" stroke="none"/>
      <rect x="0.5" y="0.5" width="189" height="15" fill="none"/>
    </g>
    <g id="Rectangle_1" data-name="Rectangle 1" transform="translate(7 58)" stroke="#707070" stroke-width="1">
      <rect width="250" height="153" stroke="none"/>
      <rect x="0.5" y="0.5" width="249" height="152" fill="none"/>
    </g>
    <g id="Rectangle_2" data-name="Rectangle 2" transform="translate(29 80)" fill="#b7b7b7" stroke="#b4a3a3" stroke-width="1">
      <rect width="204" height="110" stroke="none"/>
      <rect x="0.5" y="0.5" width="203" height="109" fill="none"/>
    </g>
    <g id="Rectangle_8" data-name="Rectangle 8" transform="translate(47 12)" fill="#eaeaea" stroke="#707070" stroke-width="1">
      <rect width="170" height="178" stroke="none"/>
      <rect x="0.5" y="0.5" width="169" height="177" fill="none"/>
    </g>
    <g id="Rectangle_14" data-name="Rectangle 14" transform="translate(57 26)" fill="#fff" stroke="#707070" stroke-width="1">
      <rect width="150" height="164" stroke="none"/>
      <rect x="0.5" y="0.5" width="149" height="163" fill="none"/>
    </g>
    <g id="Path_3" data-name="Path 3" transform="translate(56.312 17)" fill="#f50303">
      <path d="M 3.624494791030884 5.5 C 1.901644825935364 5.5 0.500004768371582 4.378499984741211 0.500004768371582 3 C 0.500004768371582 1.621500015258789 1.901644825935364 0.5 3.624494791030884 0.5 C 5.347344875335693 0.5 6.748984813690186 1.621500015258789 6.748984813690186 3 C 6.748984813690186 4.378499984741211 5.347344875335693 5.5 3.624494791030884 5.5 Z" stroke="none"/>
      <path d="M 3.624494791030884 1 C 2.888614654541016 1 2.204874992370605 1.230500221252441 1.699214935302734 1.649030208587646 C 1.248324871063232 2.022239923477173 1.000004768371582 2.502019882202148 1.000004768371582 3 C 1.000004768371582 3.497980117797852 1.248324871063232 3.977760076522827 1.699214935302734 4.350970268249512 C 2.204874992370605 4.769499778747559 2.888614654541016 5 3.624494791030884 5 C 4.360374450683594 5 5.04411506652832 4.769499778747559 5.549774646759033 4.350970268249512 C 6.000664710998535 3.977760076522827 6.248984813690186 3.497980117797852 6.248984813690186 3 C 6.248984813690186 2.502019882202148 6.000664710998535 2.022239923477173 5.549774646759033 1.649030208587646 C 5.04411506652832 1.230500221252441 4.360374450683594 1 3.624494791030884 1 M 3.624494791030884 0 C 5.62624454498291 0 7.248984813690186 1.34315013885498 7.248984813690186 3 C 7.248984813690186 4.65684986114502 5.62624454498291 6 3.624494791030884 6 C 1.622744560241699 6 4.76837158203125e-06 4.65684986114502 4.76837158203125e-06 3 C 4.76837158203125e-06 1.34315013885498 1.622744560241699 0 3.624494791030884 0 Z" stroke="none" fill="#707070"/>
    </g>
    <g id="Path_4" data-name="Path 4" transform="translate(63.561 17)" fill="#fff612">
      <path d="M 3.624494791030884 5.5 C 1.901644825935364 5.5 0.500004768371582 4.378499984741211 0.500004768371582 3 C 0.500004768371582 1.621500015258789 1.901644825935364 0.5 3.624494791030884 0.5 C 5.347344875335693 0.5 6.748984813690186 1.621500015258789 6.748984813690186 3 C 6.748984813690186 4.378499984741211 5.347344875335693 5.5 3.624494791030884 5.5 Z" stroke="none"/>
      <path d="M 3.624494791030884 1 C 2.888614654541016 1 2.204874992370605 1.230500221252441 1.699214935302734 1.649030208587646 C 1.248324871063232 2.022239923477173 1.000004768371582 2.502019882202148 1.000004768371582 3 C 1.000004768371582 3.497980117797852 1.248324871063232 3.977760076522827 1.699214935302734 4.350970268249512 C 2.204874992370605 4.769499778747559 2.888614654541016 5 3.624494791030884 5 C 4.360374450683594 5 5.04411506652832 4.769499778747559 5.549774646759033 4.350970268249512 C 6.000664710998535 3.977760076522827 6.248984813690186 3.497980117797852 6.248984813690186 3 C 6.248984813690186 2.502019882202148 6.000664710998535 2.022239923477173 5.549774646759033 1.649030208587646 C 5.04411506652832 1.230500221252441 4.360374450683594 1 3.624494791030884 1 M 3.624494791030884 0 C 5.62624454498291 0 7.248984813690186 1.34315013885498 7.248984813690186 3 C 7.248984813690186 4.65684986114502 5.62624454498291 6 3.624494791030884 6 C 1.622744560241699 6 4.76837158203125e-06 4.65684986114502 4.76837158203125e-06 3 C 4.76837158203125e-06 1.34315013885498 1.622744560241699 0 3.624494791030884 0 Z" stroke="none" fill="#707070"/>
    </g>
    <g id="Ellipse_1" data-name="Ellipse 1" transform="translate(71 17)" fill="#03ff20" stroke="#707070" stroke-width="1">
      <ellipse cx="3.5" cy="3" rx="3.5" ry="3" stroke="none"/>
      <ellipse cx="3.5" cy="3" rx="3" ry="2.5" fill="none"/>
    </g>
    <g id="construction_black_24dp" transform="translate(-293 -31.657)">
      <g id="Group_1" data-name="Group 1">
        <rect id="Rectangle_4" data-name="Rectangle 4" width="184" height="184" transform="translate(0 -0.131)" fill="none"/>
      </g>
      <g id="Group_3" data-name="Group 3" transform="translate(353.275 74.581)">
        <g id="Group_2" data-name="Group 2">
          <rect id="Rectangle_5" data-name="Rectangle 5" width="23.022" height="65.076" transform="translate(80.157 92.848) rotate(-45)"/>
          <path id="Path_2" data-name="Path 2" d="M112.542,57.9c13.841,0,25.1-11.749,25.1-26.192a26.748,26.748,0,0,0-2.94-11.974L115.339,39.937l-10.686-11.15L124.017,8.581a23.97,23.97,0,0,0-11.475-3.068c-13.841,0-25.1,11.749-25.1,26.192a26.511,26.511,0,0,0,1.506,8.681L75.68,54.23,62.915,40.91,68.007,35.6,57.895,25.044,73.1,9.179a20.883,20.883,0,0,0-30.407,0L17.3,35.671,27.416,46.223H7.192L2.1,51.536,27.487,78.028l5.092-5.313V51.536L42.691,62.088l5.092-5.313L60.548,70.1,7.407,125.549l15.2,15.865,81.612-85.088A23.552,23.552,0,0,0,112.542,57.9Z" transform="translate(-2.1 -2.612)"/>
        </g>
      </g>
    </g>
  </g>
</svg>
